
<svg version="1.1" xmlns="http://www.w3.org/2000/svg" xmlns:xlink="http://www.w3.org/1999/xlink" preserveAspectRatio="xMidYMid meet"
    viewBox="543 357 125 125">
    <g data-item-type="image" data-item="Image" data-logo-item="" id="logo__item--logo_0" class="logo__item">
        <g class="logo__item__inner" transform="translate(529.2078422413164 347.5) scale(1.520064851399605 1.520064851399605) rotate(0 0 0)">

            <g>
                <polygon fill="#26A9E0" points="89.28,36.615 89.469,26.765 87.602,25.031 73.195,9.427 67.989,9.427 65.253,12.207" data-part-id="logo__item--logo_0__0"></polygon>
                <polygon fill="#26A9E0" points="89.208,40.589 63.263,14.232 58.917,18.64 89.049,48.873" data-part-id="logo__item--logo_0__1"></polygon>
                <polygon fill="#808080" points="56.927,20.659 50.655,27.034 54.39,27.034 88.799,62.375 88.982,52.82" data-part-id="logo__item--logo_0__2"></polygon>
                <polygon fill="#26A9E0" points="38.759,8.812 28.912,8.626 27.178,10.493 11.569,24.895 11.569,30.097 14.352,32.833" data-part-id="logo__item--logo_0__3"></polygon>
                <polygon fill="#26A9E0" points="42.728,8.883 16.376,34.83 20.778,39.172 51.017,9.038" data-part-id="logo__item--logo_0__4"></polygon>
                <polygon fill="#808080" points="22.805,41.163 29.173,47.437 29.173,43.705 64.524,9.29 54.964,9.112" data-part-id="logo__item--logo_0__5"></polygon>
                <polygon fill="#26A9E0" points="11.753,59.577 11.569,69.424 13.437,71.158 27.843,86.767 33.046,86.767 35.783,83.987" data-part-id="logo__item--logo_0__6"></polygon>
                <polygon fill="#26A9E0" points="11.827,55.608 37.775,81.963 42.116,77.553 11.984,47.317" data-part-id="logo__item--logo_0__7"></polygon>
                <polygon fill="#808080" points="44.111,75.531 50.381,69.16 46.649,69.16 12.234,33.815 12.056,43.374" data-part-id="logo__item--logo_0__8"></polygon>
                <polygon fill="#26A9E0" points="62.278,87.384 72.12,87.57 73.854,85.703 89.469,71.297 89.469,66.094 86.687,63.356" data-part-id="logo__item--logo_0__9"></polygon>
                <polygon fill="#26A9E0" points="58.305,87.31 84.659,61.367 80.255,57.021 50.021,87.155" data-part-id="logo__item--logo_0__10"></polygon>
                <polygon fill="#808080" points="78.228,55.031 71.86,48.756 71.86,52.49 36.512,86.902 46.072,87.083" data-part-id="logo__item--logo_0__11"></polygon>
            </g>

        </g>
    </g>
</svg>